<svg xmlns="http://www.w3.org/2000/svg" viewBox="0 0 128 128">
  <!-- Background: rounded terminal shape -->
  <rect x="8" y="8" width="112" height="112" rx="16" ry="16" fill="#2d2d2d"/>
  <rect x="8" y="8" width="112" height="112" rx="16" ry="16" fill="none" stroke="#1a1a1a" stroke-width="2"/>

  <!-- Title bar -->
  <rect x="8" y="8" width="112" height="24" rx="16" ry="16" fill="#3c3c3c"/>
  <rect x="8" y="20" width="112" height="12" fill="#3c3c3c"/>

  <!-- Title bar dots -->
  <circle cx="26" cy="20" r="4" fill="#ff5f57"/>
  <circle cx="40" cy="20" r="4" fill="#febc2e"/>
  <circle cx="54" cy="20" r="4" fill="#28c840"/>

  <!-- Vertical split line (multiplexer) -->
  <line x1="64" y1="36" x2="64" y2="112" stroke="#555" stroke-width="2"/>

  <!-- Left pane: prompt -->
  <text x="18" y="56" font-family="monospace" font-size="14" fill="#28c840" font-weight="bold">$</text>
  <rect x="30" y="46" width="24" height="3" rx="1" fill="#aaa"/>

  <!-- Right pane: prompt -->
  <text x="74" y="56" font-family="monospace" font-size="14" fill="#28c840" font-weight="bold">$</text>
  <rect x="86" y="46" width="20" height="3" rx="1" fill="#aaa"/>

  <!-- Left pane: output lines -->
  <rect x="18" y="62" width="32" height="3" rx="1" fill="#888"/>
  <rect x="18" y="72" width="28" height="3" rx="1" fill="#888"/>
  <rect x="18" y="82" width="34" height="3" rx="1" fill="#888"/>

  <!-- Right pane: output lines -->
  <rect x="74" y="62" width="30" height="3" rx="1" fill="#888"/>
  <rect x="74" y="72" width="36" height="3" rx="1" fill="#888"/>
  <rect x="74" y="82" width="26" height="3" rx="1" fill="#888"/>

  <!-- Bottom left prompt -->
  <text x="18" y="104" font-family="monospace" font-size="14" fill="#28c840" font-weight="bold">$</text>
  <rect x="30" y="96" width="8" height="10" rx="1" fill="#28c840" opacity="0.7"/>

  <!-- Bottom right prompt -->
  <text x="74" y="104" font-family="monospace" font-size="14" fill="#28c840" font-weight="bold">$</text>
</svg>
